<svg width="80" height="80" viewBox="0 0 80 80" fill="none" xmlns="http://www.w3.org/2000/svg">
<path d="M19.9501 60.445C19.9501 60.445 17.2303 59.2432 14.189 60.5855C11.1861 61.9074 9.91535 65.5273 9.89882 65.5747C9.93202 65.5827 14.212 66.6192 16.7728 65.4312C19.6254 64.1049 20.2139 60.8847 20.2216 60.8423C19.3932 61.3739 17.0009 62.8326 15.3957 63.3295C17.1397 62.4642 18.9274 61.2665 19.9501 60.445Z" fill="#A3CF65"/>
<path d="M9.02772 53.9948C5.53994 53.9525 2.76484 57.3707 2.74192 57.399C2.74192 57.399 6.00615 59.7451 9.01829 59.7312C12.388 59.717 14.5802 56.8678 14.5802 56.8678C13.5336 57.0072 10.5438 57.3502 8.79425 57.1217C10.8714 57.0623 13.1584 56.6891 14.5278 56.3641C14.4955 56.326 12.539 54.0338 9.03882 53.9903L9.02772 53.9948Z" fill="#A3CF65"/>
<path d="M7.47714 45.697C4.80669 43.5889 0.657921 44.8449 0.657921 44.8449C0.667246 44.8891 1.4234 48.4498 3.74546 50.2128C6.34437 52.1827 9.88544 51.2377 9.88544 51.2377C8.99137 50.7309 6.46398 49.2453 5.2598 48.0242C6.90494 49.1992 8.89583 50.2592 10.1714 50.8121C10.1714 50.8121 10.1834 47.8167 7.48952 45.697H7.47714Z" fill="#A3CF65"/>
<path d="M5.93143 36.9668C3.7839 34.8948 0.000468731 35.5817 0.000468731 35.5817C0.00350191 35.6151 0.294918 38.7687 2.1598 40.5093C4.26188 42.4628 7.47714 41.9793 7.47714 41.9793V41.9688C6.72711 41.4535 4.65939 39.9291 3.72771 38.759C5.04574 39.9292 6.69312 41.0458 7.7612 41.6362C7.76242 41.6262 8.07473 39.0561 5.93143 36.9668Z" fill="#A3CF65"/>
<path d="M0.498446 25.2035C0.498446 25.2035 0.372545 28.1984 1.89795 30.0301C3.6101 32.0767 6.66099 31.9912 6.66099 31.9912C6.04204 31.4246 4.30025 29.7688 3.57833 28.5826C4.65896 29.8124 6.06039 31.0366 6.97693 31.704C6.97693 31.704 7.60626 29.3368 5.85933 27.1569L5.83784 27.1587C4.11385 24.9876 0.498446 25.2035 0.498446 25.2035Z" fill="#A3CF65"/>
<path d="M4.37561 15.9876C4.36199 16.0293 3.46256 18.8037 4.4096 20.8886C5.48765 23.2334 8.40799 23.8701 8.40799 23.8701C7.95878 23.1804 6.75634 21.2071 6.38577 19.9127C7.08201 21.3451 8.09364 22.8305 8.77865 23.6793C8.79526 23.6503 9.98389 21.561 8.9245 19.0956C7.86883 16.6342 4.37561 15.9876 4.37561 15.9876Z" fill="#A3CF65"/>
<path d="M9.55715 8.64196C9.55715 8.64196 8.10349 10.816 8.40799 12.8024C8.74931 15.0049 11.0417 16.1665 11.075 16.1832C10.8753 15.513 10.3398 13.6344 10.3293 12.4504C10.5791 13.7972 11.0532 15.2344 11.4299 16.0923C11.4299 16.0923 12.9714 14.572 12.6658 12.2453C12.3611 9.94273 9.59033 8.65728 9.55715 8.64196Z" fill="#A3CF65"/>
<path d="M15.5882 3.19716C15.5882 3.19716 13.6279 4.69316 13.2705 6.51003C12.8734 8.53582 14.5193 10.1904 14.5315 10.2026C14.5579 9.55722 14.6926 7.72372 15.0615 6.69023C14.8546 7.94395 14.8192 9.36856 14.8802 10.2312L14.8823 10.2216C14.9073 10.2093 16.7088 9.31643 17.1645 7.20654C17.6274 5.11483 15.6102 3.21772 15.5882 3.19716Z" fill="#A3CF65"/>
<path d="M23.9047 0.0126953C23.9047 0.0126953 21.3874 0.239028 20.0285 1.5687C18.498 3.0409 18.9013 5.29764 18.9013 5.29764C19.3072 4.77307 20.497 3.30341 21.417 2.64345C20.5047 3.58439 19.6339 4.74191 19.1749 5.49482C19.1904 5.49638 21.2147 5.69626 22.8487 4.17603C24.4695 2.66226 23.9047 0.0126953 23.9047 0.0126953Z" fill="#A3CF65"/>
<path d="M60.0499 60.445C60.0499 60.445 62.7697 59.2432 65.811 60.5855C68.8139 61.9074 70.0846 65.5273 70.1012 65.5747C70.068 65.5827 65.788 66.6192 63.2272 65.4312C60.3746 64.1049 59.7861 60.8847 59.7784 60.8423C60.6068 61.3739 62.9991 62.8326 64.6043 63.3295C62.8603 62.4642 61.0726 61.2665 60.0499 60.445Z" fill="#A3CF65"/>
<path d="M70.9723 53.9948C74.4601 53.9525 77.2352 57.3707 77.2581 57.399C77.2581 57.399 73.9938 59.7451 70.9817 59.7312C67.612 59.717 65.4198 56.8678 65.4198 56.8678C66.4664 57.0072 69.4562 57.3502 71.2058 57.1217C69.1286 57.0623 66.8416 56.6891 65.4722 56.3641C65.5045 56.326 67.461 54.0338 70.9612 53.9903L70.9723 53.9948Z" fill="#A3CF65"/>
<path d="M72.5229 45.697C75.1933 43.5889 79.3421 44.8449 79.3421 44.8449C79.3328 44.8891 78.5766 48.4498 76.2545 50.2128C73.6556 52.1827 70.1146 51.2377 70.1146 51.2377C71.0086 50.7309 73.536 49.2453 74.7402 48.0242C73.0951 49.1992 71.1042 50.2592 69.8286 50.8121C69.8286 50.8121 69.8166 47.8167 72.5105 45.697H72.5229Z" fill="#A3CF65"/>
<path d="M74.0686 36.9668C76.2161 34.8948 79.9995 35.5817 79.9995 35.5817C79.9965 35.6151 79.7051 38.7687 77.8402 40.5093C75.7381 42.4628 72.5229 41.9793 72.5229 41.9793V41.9688C73.2729 41.4535 75.3406 39.9291 76.2723 38.759C74.9543 39.9292 73.3069 41.0458 72.2388 41.6362C72.2376 41.6262 71.9253 39.0561 74.0686 36.9668Z" fill="#A3CF65"/>
<path d="M79.5016 25.2035C79.5016 25.2035 79.6275 28.1984 78.102 30.0301C76.3899 32.0767 73.339 31.9912 73.339 31.9912C73.958 31.4246 75.6997 29.7688 76.4217 28.5826C75.341 29.8124 73.9396 31.0366 73.0231 31.704C73.0231 31.704 72.3937 29.3368 74.1407 27.1569L74.1622 27.1587C75.8862 24.9876 79.5016 25.2035 79.5016 25.2035Z" fill="#A3CF65"/>
<path d="M75.6244 15.9876C75.638 16.0293 76.5374 18.8037 75.5904 20.8886C74.5124 23.2334 71.592 23.8701 71.592 23.8701C72.0412 23.1804 73.2437 21.2071 73.6142 19.9127C72.918 21.3451 71.9064 22.8305 71.2213 23.6793C71.2047 23.6503 70.0161 21.561 71.0755 19.0956C72.1312 16.6342 75.6244 15.9876 75.6244 15.9876Z" fill="#A3CF65"/>
<path d="M70.4429 8.64196C70.4429 8.64196 71.8965 10.816 71.592 12.8024C71.2507 15.0049 68.9583 16.1665 68.925 16.1832C69.1247 15.513 69.6602 13.6344 69.6707 12.4504C69.4209 13.7972 68.9468 15.2344 68.5701 16.0923C68.5701 16.0923 67.0286 14.572 67.3342 12.2453C67.6389 9.94273 70.4097 8.65728 70.4429 8.64196Z" fill="#A3CF65"/>
<path d="M64.4118 3.19716C64.4118 3.19716 66.3721 4.69316 66.7295 6.51003C67.1266 8.53582 65.4807 10.1904 65.4685 10.2026C65.4421 9.55722 65.3074 7.72372 64.9385 6.69023C65.1454 7.94395 65.1808 9.36856 65.1198 10.2312L65.1177 10.2216C65.0927 10.2093 63.2912 9.31643 62.8355 7.20654C62.3726 5.11483 64.3898 3.21772 64.4118 3.19716Z" fill="#A3CF65"/>
<path d="M56.0953 0.0126953C56.0953 0.0126953 58.6126 0.239028 59.9715 1.5687C61.502 3.0409 61.0987 5.29764 61.0987 5.29764C60.6928 4.77307 59.503 3.30341 58.583 2.64345C59.4953 3.58439 60.3661 4.74191 60.8251 5.49482C60.8096 5.49638 58.7853 5.69626 57.1513 4.17603C55.5305 2.66226 56.0953 0.0126953 56.0953 0.0126953Z" fill="#A3CF65"/>
<path d="M38.7637 65.8893L58.6254 58.0039L64.0046 71.6996C64.0046 71.6996 58.6254 73.9846 52.4186 70.8696C50.6446 77.5099 44.1429 80.0001 44.1429 80.0001L38.7637 65.8893Z" fill="url(#paint0_linear_2940_4999)"/>
<path d="M41.248 65.8893L21.3864 58.0039L16.0072 71.6996C16.0072 71.6996 21.3864 73.9846 27.5931 70.8696C29.3671 77.5099 35.8688 80.0001 35.8688 80.0001L41.248 65.8893Z" fill="url(#paint1_linear_2940_4999)"/>
<ellipse cx="40.2318" cy="34.0029" rx="33.9993" ry="33.9941" fill="url(#paint2_linear_2940_4999)"/>
<path d="M6.23242 33.9989C6.23242 33.9989 8.60356 29.1078 9.49797 25.767C10.3924 22.4262 10.7822 17.0043 10.7822 17.0043C10.7822 17.0043 15.2856 13.9518 17.7336 11.5042C20.1815 9.0567 23.2345 4.55393 23.2345 4.55393C23.2345 4.55393 28.6572 4.1642 31.9985 3.26993C35.3398 2.37566 40.2317 0.00488281 40.2317 0.00488281C40.2317 0.00488281 45.1237 2.37566 48.465 3.26993C51.8063 4.1642 57.229 4.55393 57.229 4.55393C57.229 4.55393 60.282 9.0567 62.73 11.5042C65.1779 13.9518 69.6813 17.0043 69.6813 17.0043C69.6813 17.0043 70.0711 22.4262 70.9655 25.767C71.8599 29.1078 74.2311 33.9989 74.2311 33.9989C74.2311 33.9989 71.8599 38.8901 70.9655 42.2309C70.0711 45.5717 69.6813 50.9936 69.6813 50.9936C69.6813 50.9936 65.1779 54.0461 62.73 56.4937C60.282 58.9412 57.229 63.444 57.229 63.444C57.229 63.444 51.8063 63.8337 48.465 64.728C45.1237 65.6223 40.2317 67.993 40.2317 67.993C40.2317 67.993 35.3398 65.6223 31.9985 64.728C28.6572 63.8337 23.2345 63.444 23.2345 63.444C23.2345 63.444 20.1815 58.9412 17.7336 56.4937C15.2856 54.0461 10.7822 50.9936 10.7822 50.9936C10.7822 50.9936 10.3924 45.5717 9.49797 42.2309C8.60356 38.8901 6.23242 33.9989 6.23242 33.9989Z" fill="#FEBD45"/>
<path d="M14.2333 33.9941C14.2333 27.2219 10.7832 16.9995 10.7832 16.9995C10.7832 16.9995 22.1996 15.4047 27.9665 11.994C33.7333 8.58329 40.2328 0 40.2328 0C40.2328 0 47.0623 8.59083 52.966 11.994C58.8697 15.3972 69.6824 16.9995 69.6824 16.9995C69.6824 16.9995 66.2323 27.2219 66.2323 33.9941C66.2323 40.7662 69.6824 50.9887 69.6824 50.9887C69.6824 50.9887 59.8289 53.3419 54.2301 56.4403C48.6313 59.5387 40.2328 67.9881 40.2328 67.9881C40.2328 67.9881 33.0996 59.8202 27.2355 56.4403C21.3714 53.0604 10.7832 50.9887 10.7832 50.9887C10.7832 50.9887 14.2333 40.7662 14.2333 33.9941Z" fill="#FED262"/>
<ellipse cx="40.2319" cy="33.9912" rx="24.9995" ry="24.9956" fill="#FEBE58"/>
<path fill-rule="evenodd" clip-rule="evenodd" d="M33.5181 23.4077C33.5181 21.7106 34.1923 20.083 35.3923 18.883C36.5923 17.683 38.2199 17.0088 39.917 17.0088C41.6141 17.0088 43.2417 17.683 44.4417 18.883C45.6417 20.083 46.3159 21.7106 46.3159 23.4077C46.3159 25.1048 45.6417 26.7323 44.4417 27.9324C43.2417 29.1324 41.6141 29.8065 39.917 29.8065C38.2199 29.8065 36.5923 29.1324 35.3923 27.9324C34.1923 26.7323 33.5181 25.1048 33.5181 23.4077ZM46.3159 28.5268C46.3159 27.1691 46.8552 25.867 47.8153 24.907C48.7753 23.947 50.0773 23.4077 51.435 23.4077C52.7927 23.4077 54.0947 23.947 55.0548 24.907C56.0148 25.867 56.5541 27.1691 56.5541 28.5268C56.5541 29.8844 56.0148 31.1865 55.0548 32.1465C54.0947 33.1065 52.7927 33.6459 51.435 33.6459C50.0773 33.6459 48.7753 33.1065 47.8153 32.1465C46.8552 31.1865 46.3159 29.8844 46.3159 28.5268ZM23.2799 28.5268C23.2799 27.1691 23.8192 25.867 24.7793 24.907C25.7393 23.947 27.0414 23.4077 28.399 23.4077C29.7567 23.4077 31.0588 23.947 32.0188 24.907C32.9788 25.867 33.5181 27.1691 33.5181 28.5268C33.5181 29.8844 32.9788 31.1865 32.0188 32.1465C31.0588 33.1065 29.7567 33.6459 28.399 33.6459C27.0414 33.6459 25.7393 33.1065 24.7793 32.1465C23.8192 31.1865 23.2799 29.8844 23.2799 28.5268ZM30.2078 37.6848C31.2486 36.0536 32.6839 34.7111 34.3809 33.7814C36.078 32.8518 37.982 32.365 39.917 32.3661C41.5378 32.3646 43.1405 32.7055 44.6204 33.3663C46.1003 34.0272 47.424 34.9931 48.5047 36.2009C49.5854 37.4088 50.3989 38.8312 50.8918 40.3752C51.3847 41.9192 51.546 43.5498 51.365 45.1604C51.3429 45.3605 51.2739 45.5526 51.1636 45.721C51.0533 45.8894 50.9049 46.0294 50.7303 46.1297C47.4396 48.0178 43.7109 49.0087 39.917 49.0032C35.9838 49.0032 32.2895 47.9589 29.1038 46.1297C28.9292 46.0294 28.7807 45.8894 28.6704 45.721C28.5601 45.5526 28.4911 45.3605 28.469 45.1604C28.1824 42.5439 28.7957 39.9079 30.2078 37.6866V37.6848Z" fill="#E8783C"/>
<path d="M28.1124 36.2123C26.4295 38.81 25.6454 41.8882 25.8804 44.9745C24.8558 44.8191 23.848 44.5677 22.8704 44.2237L22.6742 44.1554C22.4991 44.0933 22.3458 43.9817 22.2328 43.8342C22.1198 43.6867 22.0521 43.5096 22.0377 43.3244L22.0206 43.1179C21.9517 42.2613 22.056 41.3995 22.3274 40.584C22.5988 39.7686 23.0317 39.0162 23.6002 38.3717C24.1688 37.7272 24.8613 37.2038 25.6365 36.8328C26.4118 36.4618 27.2538 36.2507 28.1124 36.2123ZM53.9536 44.9745C54.1887 41.8882 53.4046 38.81 51.7217 36.2123C52.5803 36.2507 53.4223 36.4618 54.1975 36.8328C54.9727 37.2038 55.6653 37.7272 56.2338 38.3717C56.8023 39.0162 57.2352 39.7686 57.5066 40.584C57.778 41.3995 57.8824 42.2613 57.8134 43.1179L57.7964 43.3244C57.7817 43.5093 57.7137 43.686 57.6008 43.8332C57.4879 43.9804 57.3347 44.0917 57.1599 44.1537L56.9637 44.2219C55.9961 44.5632 54.9911 44.8175 53.9536 44.9745Z" fill="#E8783C"/>
<path d="M31.9985 3.26602C35.3398 2.37175 40.2317 0.000976562 40.2317 0.000976562C40.2317 0.000976562 45.1237 2.37175 48.465 3.26602C51.8063 4.16029 57.229 4.55003 57.229 4.55003L23.2345 63.4401C23.2345 63.4401 20.1815 58.9373 17.7336 56.4898C15.2856 54.0422 10.7822 50.9897 10.7822 50.9897C10.7822 50.9897 10.3924 45.5678 9.49797 42.227C8.60356 38.8862 6.23242 33.995 6.23242 33.995C6.23242 33.995 8.60356 29.1039 9.49797 25.7631C10.3924 22.4223 10.7822 17.0004 10.7822 17.0004C10.7822 17.0004 15.2856 13.9479 17.7336 11.5003C20.1815 9.0528 23.2345 4.55003 23.2345 4.55003C23.2345 4.55003 28.6572 4.16029 31.9985 3.26602Z" fill="url(#paint3_linear_2940_4999)"/>
<path fill-rule="evenodd" clip-rule="evenodd" d="M40.2319 8.99561C54.0387 8.99561 65.2314 20.187 65.2314 33.9917C65.2313 47.7962 54.0386 58.9869 40.2319 58.9869C26.4254 58.9867 15.2326 47.7961 15.2324 33.9917C15.2324 20.1871 26.4253 8.99576 40.2319 8.99561ZM57.909 16.3168C48.5898 6.99933 32.6771 7.80226 23.3581 17.1199C14.039 26.4375 13.2358 42.348 22.5549 51.6657C31.8739 60.9833 47.7867 60.1801 57.1058 50.8626C66.4249 41.545 67.2281 25.6345 57.909 16.3168Z" fill="url(#paint4_linear_2940_4999)"/>
<path d="M39.9998 32.3665C41.628 32.365 43.2386 32.7054 44.7253 33.3663C46.2119 34.0271 47.5419 34.993 48.6276 36.2008C48.9064 36.511 49.1663 36.8363 49.4088 37.1732C49.2798 37.0126 49.1471 36.8546 49.0094 36.7007C47.9285 35.4928 46.6038 34.5271 45.1237 33.8662C43.6437 33.2054 42.0406 32.8649 40.4197 32.8664C38.4845 32.8653 36.58 33.3516 34.8827 34.2812C33.1854 35.2108 31.7499 36.5536 30.709 38.1848V38.1867C29.2968 40.4079 28.6832 43.0438 28.9697 45.66C28.9872 45.818 29.0352 45.9709 29.1084 46.1111C28.9456 46.0123 28.8058 45.8796 28.7012 45.7206C28.5905 45.5523 28.5212 45.3601 28.499 45.1601C28.2112 42.5438 28.8276 39.908 30.2461 37.6868V37.6849C31.2917 36.0537 32.7335 34.7109 34.4384 33.7813C36.1432 32.8517 38.056 32.3654 39.9998 32.3665Z" fill="#CE7849"/>
<path d="M28.1406 36.2125C28.0136 36.4076 27.8922 36.6057 27.7754 36.8061C27.2094 36.9072 26.6577 37.0831 26.1368 37.3324C25.3616 37.7034 24.6692 38.2269 24.1007 38.8712C23.5321 39.5157 23.0987 40.2683 22.8273 41.0837C22.5559 41.899 22.4518 42.7609 22.5206 43.6174L22.5382 43.8244C22.5464 43.9295 22.5733 44.0312 22.6144 44.1271C22.4654 44.0622 22.3339 43.9633 22.2345 43.8342C22.121 43.6867 22.0527 43.5097 22.0382 43.3245L22.0206 43.1175C21.9515 42.261 22.0566 41.3991 22.3292 40.5838C22.6019 39.7684 23.0364 39.0157 23.6075 38.3713C24.1787 37.7268 24.8746 37.2035 25.6534 36.8325C26.4321 36.4615 27.2782 36.251 28.1406 36.2125Z" fill="#CE7849"/>
<path d="M28.4287 23.4081C29.7926 23.4081 31.1009 23.9468 32.0654 24.9068C32.2051 25.0459 32.3344 25.1936 32.456 25.3462C31.5023 24.4251 30.2286 23.908 28.9004 23.908C27.5425 23.908 26.2395 24.4467 25.2794 25.4067C24.3194 26.3666 23.7805 27.6688 23.7804 29.0262C23.7804 30.2448 24.2158 31.4182 24.9991 32.3401C24.9288 32.2774 24.8592 32.2136 24.7921 32.1468C23.8276 31.1868 23.2862 29.884 23.2862 28.5263C23.2864 27.1688 23.8278 25.8667 24.7921 24.9068C25.7565 23.9468 27.0648 23.4081 28.4287 23.4081Z" fill="#CE7849"/>
<path d="M51.5709 23.4081C52.9347 23.4081 54.2431 23.9469 55.2075 24.9068C55.4956 25.1936 55.7451 25.5118 55.9546 25.852C55.8321 25.6971 55.7011 25.5478 55.56 25.4067C54.5999 24.4468 53.2977 23.9081 51.94 23.908C50.5821 23.908 49.2791 24.4467 48.319 25.4067C47.359 26.3666 46.8201 27.6688 46.82 29.0262C46.82 30.0554 47.1306 31.0524 47.6989 31.8929C46.8831 30.9632 46.4284 29.7684 46.4284 28.5263C46.4285 27.1689 46.9699 25.8667 47.9342 24.9068C48.8986 23.9469 50.207 23.4081 51.5709 23.4081Z" fill="#CE7849"/>
<path d="M39.9998 17.0088C41.7047 17.0088 43.34 17.6834 44.5456 18.8835C44.7956 19.1323 45.0211 19.4007 45.2243 19.6831C45.1343 19.5808 45.0419 19.4803 44.945 19.3834C43.7448 18.1834 42.1171 17.5087 40.4197 17.5087C38.7224 17.5088 37.0946 18.1834 35.8944 19.3834C34.6944 20.5834 34.0204 22.211 34.0204 23.908C34.0205 25.3603 34.5153 26.7607 35.41 27.8868C34.2326 26.6913 33.5713 25.0839 33.5712 23.4081C33.5712 21.7112 34.2487 20.0834 35.454 18.8835C36.6595 17.6835 38.2949 17.0088 39.9998 17.0088Z" fill="#CE7849"/>
<path d="M55.1576 37.2975C55.6104 37.6011 56.0242 37.961 56.3871 38.3705C56.9582 39.0149 57.3927 39.7677 57.6654 40.583C57.938 41.3983 58.0431 42.2602 57.974 43.1168L57.9564 43.3238C57.9416 43.5086 57.8735 43.6853 57.7601 43.8325C57.6467 43.9795 57.4931 44.0907 57.3177 44.1527L57.1205 44.2211C56.1485 44.5623 55.1384 44.8169 54.0961 44.9739C54.1119 44.7678 54.1217 44.5616 54.1283 44.3558C54.9285 44.2003 55.7085 43.988 56.4652 43.7211L56.6615 43.6528C56.8363 43.5908 56.9899 43.4797 57.1029 43.3325C57.2157 43.1855 57.2835 43.0086 57.2982 42.8238L57.3148 42.6168C57.3837 41.7603 57.2796 40.8984 57.0082 40.0831C56.7367 39.2678 56.3033 38.515 55.7347 37.8706C55.5548 37.6666 55.3611 37.4762 55.1576 37.2975Z" fill="#FFE597"/>
<path d="M31.6249 24.5214C31.7762 24.6412 31.9223 24.7687 32.0604 24.9061C33.0247 25.866 33.5661 27.168 33.5662 28.5256C33.5662 29.8832 33.0248 31.186 32.0604 32.146C31.096 33.106 29.7877 33.6448 28.4238 33.6448C27.0598 33.6448 25.7515 33.106 24.7871 32.146C24.7139 32.0732 24.6444 31.9971 24.5762 31.9205C25.4992 32.7072 26.6748 33.1449 27.8964 33.1449C29.2541 33.1448 30.5564 32.606 31.5165 31.6461C32.4766 30.6861 33.0164 29.3833 33.0164 28.0256C33.0163 26.7209 32.516 25.4691 31.6249 24.5214Z" fill="#FFE597"/>
<path d="M54.39 24.248C54.6805 24.4379 54.9531 24.6578 55.2025 24.9061C56.1669 25.866 56.7082 27.168 56.7084 28.5256C56.7084 29.8832 56.167 31.186 55.2025 32.146C54.2381 33.106 52.9298 33.6448 51.5659 33.6448C50.245 33.6447 48.9777 33.1379 48.023 32.2339C48.8732 32.8222 49.8877 33.1449 50.936 33.1449C52.2937 33.1448 53.596 32.606 54.5561 31.6461C55.5162 30.6861 56.056 29.3833 56.056 28.0256C56.0559 26.6681 55.5161 25.3661 54.5561 24.4062C54.5019 24.352 54.4463 24.2994 54.39 24.248Z" fill="#FFE597"/>
<path d="M43.8072 18.2549C44.0656 18.4443 44.311 18.6541 44.5406 18.8827C45.746 20.0827 46.4234 21.7104 46.4234 23.4073C46.4233 25.1043 45.7461 26.732 44.5406 27.9319C43.3351 29.1319 41.6997 29.8056 39.9948 29.8056C38.2899 29.8056 36.6545 29.1319 35.449 27.9319C35.4413 27.9243 35.4342 27.9161 35.4265 27.9085C36.5545 28.8079 37.959 29.3056 39.4157 29.3057C41.1129 29.3057 42.7408 28.6318 43.941 27.432C45.1411 26.2321 45.8159 24.6043 45.816 22.9074C45.816 21.2103 45.1412 19.5828 43.941 18.3828C43.8974 18.3391 43.852 18.2971 43.8072 18.2549Z" fill="#FFE597"/>
<path d="M48.005 35.702C47.6958 35.3565 47.3655 35.0319 47.0187 34.7275C47.5968 35.1667 48.1345 35.6594 48.6221 36.2019C49.7077 37.4096 50.5244 38.8322 51.0196 40.376C51.5147 41.9198 51.6769 43.5507 51.4951 45.1613C51.4729 45.3612 51.4037 45.5534 51.293 45.7217C51.1822 45.8901 51.0328 46.0306 50.8575 46.1308C47.5517 48.0189 43.8057 49.0099 39.9944 49.0043C36.0431 49.0043 32.3318 47.96 29.1313 46.1308C29.0434 46.0806 28.962 46.0202 28.8887 45.9512L28.9913 45.8486C32.0874 47.5422 35.6411 48.5044 39.4153 48.5044C43.2097 48.5099 46.9394 47.5191 50.2305 45.6309C50.4051 45.5307 50.5538 45.3902 50.6641 45.2218C50.7743 45.0535 50.8432 44.8613 50.8653 44.6614C51.0462 43.0508 50.8846 41.4199 50.3916 39.8761C49.8987 38.3323 49.0857 36.9097 48.005 35.702Z" fill="#FFE597"/>
<path d="M54.4966 44.2858L54.0992 44.9741C54.3353 41.8878 53.5478 38.8096 51.8574 36.2119C52.7198 36.2504 53.5657 36.461 54.3443 36.8319C55.1229 37.2029 55.8188 37.7263 56.3899 38.3707C56.6279 38.6393 56.8406 38.9281 57.0294 39.2309C56.9359 39.108 56.839 38.9868 56.7365 38.8706C56.168 38.2263 55.4757 37.7028 54.7007 37.3318C53.9255 36.9609 53.0831 36.7503 52.2245 36.7118C53.6913 38.9759 54.475 41.6046 54.4966 44.2858Z" fill="#CE7849"/>
<path d="M22.5246 43.7782C23.4524 44.0942 24.407 44.3272 25.3763 44.4741C25.1811 41.9112 25.6899 39.3542 26.8318 37.073L28.1346 36.2119C26.4443 38.8096 25.6567 41.8879 25.8928 44.9741C24.8637 44.8187 23.8516 44.5672 22.8698 44.2232L22.6726 44.1549C22.5832 44.1233 22.4995 44.0789 22.4238 44.0235L22.5246 43.7782Z" fill="#FFE597"/>
<defs>
<linearGradient id="paint0_linear_2940_4999" x1="39.1775" y1="66.7194" x2="44.1689" y2="79.9903" gradientUnits="userSpaceOnUse">
<stop offset="0.150193" stop-color="#A32278"/>
<stop offset="0.617127" stop-color="#E9529D"/>
</linearGradient>
<linearGradient id="paint1_linear_2940_4999" x1="40.8343" y1="66.7194" x2="35.8428" y2="79.9903" gradientUnits="userSpaceOnUse">
<stop offset="0.190908" stop-color="#D1349D"/>
<stop offset="0.5" stop-color="#F25EA8"/>
</linearGradient>
<linearGradient id="paint2_linear_2940_4999" x1="10.7323" y1="16.9941" x2="70.2266" y2="50.9961" gradientUnits="userSpaceOnUse">
<stop stop-color="#FFF5CB"/>
<stop offset="0.496226" stop-color="#FFCF70"/>
<stop offset="0.5" stop-color="#CE861B"/>
<stop offset="1" stop-color="#E8A239"/>
</linearGradient>
<linearGradient id="paint3_linear_2940_4999" x1="10.7323" y1="16.4922" x2="42.9138" y2="26.4063" gradientUnits="userSpaceOnUse">
<stop stop-color="white" stop-opacity="0.5"/>
<stop offset="1" stop-color="white" stop-opacity="0.1"/>
</linearGradient>
<linearGradient id="paint4_linear_2940_4999" x1="57.5611" y1="51.3131" x2="22.9169" y2="16.6547" gradientUnits="userSpaceOnUse">
<stop offset="0.282285" stop-color="#FEE497"/>
<stop offset="0.771528" stop-color="#C6821C"/>
</linearGradient>
</defs>
</svg>
