<svg width="48" height="60" viewBox="0 0 48 60" fill="none" xmlns="http://www.w3.org/2000/svg">
<path d="M31 14H17V22H31V14Z" fill="#FF986F"/>
<path d="M30 14H18V22H30V14Z" fill="#A719FF"/>
<path d="M0 1.5C0 1.10218 0.158035 0.720644 0.43934 0.43934C0.720644 0.158035 1.10218 0 1.5 0L46.5 0C46.8978 0 47.2794 0.158035 47.5607 0.43934C47.842 0.720644 48 1.10218 48 1.5H0Z" fill="#FED258"/>
<path d="M0 1.5C0 1.89782 0.158035 2.27936 0.43934 2.56066C0.720644 2.84196 1.10218 3 1.5 3H46.5C46.8978 3 47.2794 2.84196 47.5607 2.56066C47.842 2.27936 48 1.89782 48 1.5C48 1.36739 47.9473 1.24021 47.8536 1.14645C47.7598 1.05268 47.6326 1 47.5 1H0.5C0.367392 1 0.240215 1.05268 0.146447 1.14645C0.0526784 1.24021 0 1.36739 0 1.5Z" fill="#F8BA33"/>
<path d="M46.5 0.5H1.5C0.947715 0.5 0.5 0.947715 0.5 1.5C0.5 2.05228 0.947715 2.5 1.5 2.5H46.5C47.0523 2.5 47.5 2.05228 47.5 1.5C47.5 0.947715 47.0523 0.5 46.5 0.5Z" fill="#FEC445"/>
<path d="M44.5 1H3.5C3.22386 1 3 1.22386 3 1.5C3 1.77614 3.22386 2 3.5 2H44.5C44.7761 2 45 1.77614 45 1.5C45 1.22386 44.7761 1 44.5 1Z" fill="#332405"/>
<path d="M31 15.75L25 17.25L17 15.25V14.25L24 16L31 14.25V15.75Z" fill="black" fill-opacity="0.3"/>
<path d="M6 1H42V12L24 16.5L6 12V1Z" fill="#FFA154"/>
<path d="M14.5 11L6 9V1H14.5V11Z" fill="#842CFE"/>
<path d="M42 8.75L33.5 11V1H42V8.75Z" fill="#842CFE"/>
<path d="M31 11.5L24 13.25L17 11.5V1H31V11.5Z" fill="#A719FF"/>
<path d="M42 1L44 3H42V1Z" fill="black" fill-opacity="0.3"/>
<path d="M6 8.5L24 13L42 8.5V12L24 16.5L6 12V8.5Z" fill="#FEC445"/>
<path d="M6 11L24 15.5V16.5L6 12V11Z" fill="black" fill-opacity="0.05"/>
<path d="M6 8.5L24 13V13.5L6 9V8.5Z" fill="#FED258"/>
<path d="M24 15.5L42 11V12L24 16.5V15.5Z" fill="black" fill-opacity="0.1"/>
<path d="M24 13L42 8.5V9L24 13.5V13Z" fill="#FEEC97"/>
<circle cx="24" cy="40" r="20" fill="#FECD45"/>
<circle cx="24" cy="40" r="14" fill="#FEE359"/>
<path d="M21.793 47.6899C20.2907 47.2688 18.9511 46.4168 17.9315 45.2384C16.9118 44.0599 16.2624 42.6081 16.0643 41.064C15.8662 39.5199 16.1281 37.9518 16.8175 36.5551C17.5068 35.1585 18.5929 33.9952 19.9406 33.2103C20.2579 33.0254 20.5874 32.8622 20.9269 32.7219C21.6226 32.5086 22.369 32.527 23.0533 32.7743C23.7376 33.0217 24.3226 33.4846 24.7199 34.093C24.9083 34.3916 25.2061 34.6184 25.5463 34.7152C25.8865 34.8121 26.2506 34.7802 26.5687 34.6257C27.2283 34.3187 27.978 34.2338 28.6902 34.3837C29.4024 34.5336 30.0465 34.9102 30.5255 35.4569C31.1762 36.3682 31.6263 37.4066 31.846 38.5038C32.0657 39.601 32.0502 40.7322 31.8004 41.823C31.5506 42.9138 31.0722 43.9395 30.3966 44.8326C29.7211 45.7258 28.8637 46.4662 27.8808 47.0053C26.022 48.0271 23.8332 48.2733 21.793 47.6899ZM22.7633 36.8173C22.1791 37.2523 21.6983 37.8105 21.3552 38.4521C21.0122 39.0937 20.8153 39.803 20.7787 40.5292C20.742 41.2555 20.8665 41.9809 21.1432 42.6537C21.42 43.3264 21.8421 43.9299 22.3796 44.4212C22.4806 44.5139 22.602 44.5818 22.734 44.6195C22.866 44.6571 23.0049 44.6634 23.1398 44.6379C23.8569 44.5055 24.536 44.2173 25.1288 43.7937C25.7217 43.3702 26.2138 42.8216 26.5702 42.1869C26.9267 41.5522 27.1386 40.8471 27.1912 40.1215C27.2437 39.3959 27.1354 38.6677 26.874 37.9886C26.7249 37.6042 26.4878 37.2599 26.1816 36.9832C25.8755 36.7065 25.5087 36.5049 25.1106 36.3946C24.8657 36.3247 24.6123 36.2891 24.3576 36.289C23.7826 36.2894 23.2233 36.4764 22.7642 36.8218L22.7633 36.8173ZM25.626 33.4465L27.0245 28.6025C27.0306 28.5815 27.0414 28.5622 27.0562 28.5461C27.071 28.53 27.0893 28.5175 27.1097 28.5096C27.1301 28.5017 27.1521 28.4986 27.1739 28.5006C27.1957 28.5025 27.2168 28.5094 27.2355 28.5208C27.6386 28.7728 27.9295 29.1694 28.0482 29.629C28.2616 30.4537 28.1479 31.3287 27.7307 32.0717C27.3135 32.8148 26.6249 33.3686 25.8085 33.6179C25.7941 33.6222 25.7791 33.6243 25.764 33.6241C25.7422 33.6241 25.7207 33.6191 25.7011 33.6096C25.6815 33.6001 25.6644 33.5862 25.651 33.569C25.6377 33.5519 25.6285 33.5319 25.6242 33.5107C25.6198 33.4894 25.6205 33.4675 25.626 33.4465Z" fill="#BA8720"/>
<path fill-rule="evenodd" clip-rule="evenodd" d="M24 20C35.0457 20 44 28.9543 44 40C44 51.0457 35.0457 60 24 60C12.9543 60 4 51.0457 4 40C4 28.9543 12.9543 20 24 20ZM24 21C13.5066 21 5 29.5066 5 40C5 50.4934 13.5066 59 24 59C34.4934 59 43 50.4934 43 40C43 29.5066 34.4934 21 24 21Z" fill="url(#paint0_linear_2914_1420)"/>
<circle cx="24" cy="40" r="20" fill="url(#paint1_linear_2914_1420)"/>
<path fill-rule="evenodd" clip-rule="evenodd" d="M24 26C31.7319 26 38 32.2683 38 40.0002C37.9999 47.7321 31.7319 54 24 54C16.2682 53.9999 10.0001 47.7321 10 40.0002C10 32.2683 16.2681 26.0001 24 26ZM33.8993 30.1006C28.6805 24.8819 19.7692 25.3316 14.5505 30.5504C9.33169 35.7692 8.88189 44.6806 14.1007 49.8994C19.3194 55.1182 28.2307 54.6683 33.4495 49.4496C38.6683 44.2308 39.1181 35.3194 33.8993 30.1006Z" fill="url(#paint2_linear_2914_1420)"/>
<path d="M6 1.5H42V4L6 8.5V1.5Z" fill="url(#paint3_linear_2914_1420)"/>
<path d="M42 1H6V1.5H42V1Z" fill="black" fill-opacity="0.3"/>
<defs>
<linearGradient id="paint0_linear_2914_1420" x1="37.8636" y1="53.8599" x2="10.1434" y2="26.1326" gradientUnits="userSpaceOnUse">
<stop stop-color="#F2C035"/>
<stop offset="0.5" stop-color="#FECD45"/>
<stop offset="1" stop-color="#FEF5C9"/>
</linearGradient>
<linearGradient id="paint1_linear_2914_1420" x1="10" y1="26" x2="37.9997" y2="54.0003" gradientUnits="userSpaceOnUse">
<stop stop-color="white" stop-opacity="0.5"/>
<stop offset="0.5" stop-color="white" stop-opacity="0.15"/>
<stop offset="0.5" stop-color="white" stop-opacity="0"/>
</linearGradient>
<linearGradient id="paint2_linear_2914_1420" x1="33.7045" y1="49.7019" x2="14.3004" y2="30.2928" gradientUnits="userSpaceOnUse">
<stop offset="0.282285" stop-color="#FEF5C9"/>
<stop offset="0.771528" stop-color="#AE8A2F"/>
</linearGradient>
<linearGradient id="paint3_linear_2914_1420" x1="6" y1="1.5" x2="11.0549" y2="14.007" gradientUnits="userSpaceOnUse">
<stop stop-color="white" stop-opacity="0.4"/>
<stop offset="1" stop-color="white" stop-opacity="0.05"/>
</linearGradient>
</defs>
</svg>
