<svg xmlns="http://www.w3.org/2000/svg" xmlns:xlink="http://www.w3.org/1999/xlink" width="96" height="96" viewBox="0 0 96 96">
  <defs>
    <linearGradient id="linear-gradient" x1="0.763" y1="0.265" x2="0.112" y2="0.947" gradientUnits="objectBoundingBox">
      <stop offset="0" stop-color="#fbbb84"/>
      <stop offset="1" stop-color="#f3885e"/>
    </linearGradient>
    <linearGradient id="linear-gradient-2" x1="0.285" y1="0.243" x2="0.947" y2="0.947" xlink:href="#linear-gradient"/>
    <radialGradient id="radial-gradient" cx="0.5" cy="0.5" r="0.5" gradientUnits="objectBoundingBox">
      <stop offset="0" stop-color="#0063cc" stop-opacity="0.6"/>
      <stop offset="1" stop-color="#0063cc" stop-opacity="0"/>
    </radialGradient>
    <linearGradient id="linear-gradient-3" x1="0.823" y1="1" x2="0" y2="0.222" gradientUnits="objectBoundingBox">
      <stop offset="0" stop-color="#d6b063"/>
      <stop offset="1" stop-color="#d99371"/>
    </linearGradient>
    <radialGradient id="radial-gradient-2" cx="0.438" cy="0.436" r="0.575" gradientTransform="matrix(1, 0.01, -0.01, 1.013, 0.005, -0.01)" gradientUnits="objectBoundingBox">
      <stop offset="0" stop-color="#7eea3a"/>
      <stop offset="0.677" stop-color="#60f42a"/>
      <stop offset="0.862" stop-color="#13c721"/>
      <stop offset="1" stop-color="#43e2ef"/>
    </radialGradient>
    <linearGradient id="linear-gradient-5" x1="0.5" x2="0.5" y2="0.5" gradientUnits="objectBoundingBox">
      <stop offset="0" stop-color="#cbff84"/>
      <stop offset="1" stop-color="#caff81" stop-opacity="0"/>
    </linearGradient>
    <linearGradient id="linear-gradient-6" x1="0.5" y1="-0.026" x2="0.5" y2="1" gradientUnits="objectBoundingBox">
      <stop offset="0" stop-color="#63ce1d" stop-opacity="0.314"/>
      <stop offset="1" stop-color="#00a533"/>
    </linearGradient>
    <linearGradient id="linear-gradient-7" x1="0.5" x2="0.5" y2="1" gradientUnits="objectBoundingBox">
      <stop offset="0" stop-color="#ffd599"/>
      <stop offset="1" stop-color="#f96"/>
    </linearGradient>
    <radialGradient id="radial-gradient-3" cx="0.465" cy="0.347" r="0.656" gradientTransform="translate(0.002 -0.003) rotate(0.412)" gradientUnits="objectBoundingBox">
      <stop offset="0" stop-color="#fc6" stop-opacity="0"/>
      <stop offset="0.424" stop-color="#ffb566" stop-opacity="0"/>
      <stop offset="0.816" stop-color="#e65437" stop-opacity="0.502"/>
      <stop offset="1" stop-color="#ffea80"/>
    </radialGradient>
    <radialGradient id="radial-gradient-4" cx="0.419" cy="0.41" r="0.618" gradientTransform="translate(0 -0.019) scale(1 1.047)" gradientUnits="objectBoundingBox">
      <stop offset="0" stop-color="#ffd9b3" stop-opacity="0"/>
      <stop offset="0.845" stop-color="#ffd9b3" stop-opacity="0"/>
      <stop offset="1" stop-color="#ffd9b3" stop-opacity="0.4"/>
    </radialGradient>
    <radialGradient id="radial-gradient-5" cx="0.459" cy="0.25" r="0.396" gradientTransform="matrix(1, -0.001, 0.001, 0.758, 0, 0.079)" gradientUnits="objectBoundingBox">
      <stop offset="0" stop-color="#ffe7cc"/>
      <stop offset="1" stop-color="#ffe6cc" stop-opacity="0"/>
    </radialGradient>
    <linearGradient id="linear-gradient-8" x1="0.5" x2="0.482" y2="0.743" gradientUnits="objectBoundingBox">
      <stop offset="0" stop-color="#fff" stop-opacity="0.4"/>
      <stop offset="1" stop-color="#fff" stop-opacity="0.2"/>
    </linearGradient>
  </defs>
  <g id="koreez_cool" transform="translate(-112 -258)">
    <path id="container" d="M0,0H96V96H0Z" transform="translate(112 258)" fill="none"/>
    <path id="Union_275" data-name="Union 275" d="M.575,14.181a.853.853,0,1,1,.558-1.613c2.37.821,4.373.679,5.956-.424,1.88-1.311,3.042-3.916,3.227-7.206a4.7,4.7,0,0,1-.753-.17A3.942,3.942,0,0,1,8.5,4.25a2.9,2.9,0,0,1-.844-.858.852.852,0,0,1,1.46-.879h0l.023.031a1.338,1.338,0,0,0,.151.159,1.957,1.957,0,0,0,.38.266c-.011-.071-.024-.141-.033-.211-.04-.281-.064-.558-.079-.808-.022-.336-.026-.627-.026-.819,0-.148,0-.237,0-.244a.854.854,0,1,1,1.707.049v0l0,.008V.983c0,.033,0,.085,0,.148,0,.2.006.532.034.889.014.179.034.364.06.541.034-.142.066-.29.092-.439.048-.272.085-.541.111-.764.031-.3.046-.512.049-.548V.8a.853.853,0,0,1,1.7.1c0,.011-.016.3-.064.71-.023.192-.052.412-.09.643a6.542,6.542,0,0,0,.777-.91h0a.853.853,0,1,1,1.421.945,7.606,7.606,0,0,1-.65.816,6.756,6.756,0,0,1-1.7,1.388,4.137,4.137,0,0,1-.964.386c-.187,3.89-1.617,7.031-3.964,8.666a7.057,7.057,0,0,1-4.109,1.25A10.357,10.357,0,0,1,.575,14.181Z" transform="translate(180.381 303.516)" fill="url(#linear-gradient)"/>
    <path id="Union_276" data-name="Union 276" d="M7.415,13.546C5.067,11.911,3.637,8.77,3.451,4.88a4.147,4.147,0,0,1-.963-.386,6.744,6.744,0,0,1-1.7-1.388,7.606,7.606,0,0,1-.65-.816.853.853,0,1,1,1.421-.945h0a6.483,6.483,0,0,0,.777.91c-.038-.231-.067-.451-.091-.643C2.2,1.2,2.187.914,2.187.9A.853.853,0,1,1,3.89.8V.811c0,.037.018.251.049.548.026.223.063.492.11.764.027.149.059.3.093.439.026-.176.045-.362.06-.541.029-.357.034-.689.034-.889,0-.063,0-.115,0-.148V.938h0A.854.854,0,1,1,5.94.888c0,.006,0,.1,0,.244,0,.191,0,.483-.026.819-.016.25-.04.527-.079.808-.008.07-.022.141-.034.211A1.947,1.947,0,0,0,6.186,2.7a1.422,1.422,0,0,0,.151-.159l.022-.031h0a.852.852,0,0,1,1.46.879,2.923,2.923,0,0,1-.844.858,3.958,3.958,0,0,1-1.06.518,4.709,4.709,0,0,1-.754.17c.185,3.289,1.347,5.9,3.227,7.206,1.583,1.1,3.587,1.245,5.956.424a.853.853,0,1,1,.558,1.613,10.349,10.349,0,0,1-3.38.614A7.057,7.057,0,0,1,7.415,13.546Z" transform="translate(122.233 303.515)" fill="url(#linear-gradient-2)"/>
    <path id="Path_364" data-name="Path 364" d="M65.206,477.154c0,2.7-14.6,4.892-32.6,4.892S0,479.857,0,477.154s14.6-4.889,32.6-4.889,32.6,2.189,32.6,4.889" transform="translate(134.43 -131.573)" opacity="0.25" fill="url(#radial-gradient)"/>
    <path id="Path_5" data-name="Path 5" d="M115.617,435.141a.853.853,0,0,1-.056-1.7,3.616,3.616,0,0,0,.975-.19l-.425-9.49a.854.854,0,0,1,1.706-.077l.449,10.038a.851.851,0,0,1-.325.708,4.228,4.228,0,0,1-2.266.713.551.551,0,0,1-.057,0" transform="translate(35.033 -89.231)" fill="url(#linear-gradient-3)"/>
    <path id="Path_2" data-name="Path 2" d="M209.134,435.141a.45.45,0,0,1-.056,0,4.209,4.209,0,0,1-2.267-.713.85.85,0,0,1-.325-.708l.449-10.038a.853.853,0,0,1,1.7.077l-.425,9.49a3.509,3.509,0,0,0,.975.187.855.855,0,0,1-.056,1.707" transform="translate(-42.933 -89.231)" fill="url(#linear-gradient-3)"/>
    <g id="Group_3652" data-name="Group 3652" transform="translate(172.931 261.863) rotate(30)">
      <ellipse id="Ellipse_389" data-name="Ellipse 389" cx="4.811" cy="6.928" rx="4.811" ry="6.928" transform="translate(0 0)" fill="url(#radial-gradient-2)"/>
      <ellipse id="Ellipse_390" data-name="Ellipse 390" cx="4.811" cy="6.928" rx="4.811" ry="6.928" transform="translate(0 0)" fill="url(#linear-gradient-5)"/>
      <path id="Union_240" data-name="Union 240" d="M3.531,11.792l-.015-.034v-.006l0-.007,0,0,0-.008,0-.008,0-.006,0-.005L3.491,11.7l0-.008h0l0-.007,0-.009-.009-.022,0-.007,0-.008v0l0-.005-.01-.024v0l0,0-.018-.044v0l-.015-.037L3.4,11.482h0c-.08-.2-.154-.392-.215-.566-.109-.306-.207-.616-.292-.923q-.055-.2-.1-.392-.06-.239-.112-.481A2.128,2.128,0,0,0,1.213,7.446,1.624,1.624,0,0,1,0,6.043a.192.192,0,1,1,.381-.056c.107.731.474.888.982,1.1a2.725,2.725,0,0,1,1.091.714q-.047-.379-.076-.762Q2.36,6.8,2.348,6.553A2,2,0,0,0,1.293,5.039,2.126,2.126,0,0,1,.152,3.283.192.192,0,1,1,.536,3.26a1.77,1.77,0,0,0,.98,1.466,3.387,3.387,0,0,1,.818.731q.017-.812.113-1.63l.01-.09c.05-.528-.259-.779-.647-1.1A2.041,2.041,0,0,1,.923,1.379a.192.192,0,1,1,.38-.063,1.687,1.687,0,0,0,.75,1.028,3.1,3.1,0,0,1,.53.508A19.957,19.957,0,0,1,3.239.134.193.193,0,0,1,3.606.25,18.853,18.853,0,0,0,2.763,4.6a4.794,4.794,0,0,1,1.328-.88c.776-.4,1.578-.817,1.843-1.657a.193.193,0,0,1,.367.116A3.526,3.526,0,0,1,4.268,4.058c-.823.426-1.535.795-1.547,1.6v.01q0,.448.018.891c0,.039,0,.078.006.117,0,.016,0,.032,0,.049v.015q.018.314.049.623a1.575,1.575,0,0,1,.233-.269,4.728,4.728,0,0,1,1.407-.762A3.865,3.865,0,0,0,7.088,3.983a.193.193,0,0,1,.367.116A4.23,4.23,0,0,1,4.584,6.682a4.493,4.493,0,0,0-1.292.689,1.178,1.178,0,0,0-.331,1.171q.014.08.029.162.037.194.079.387c.011.046.022.092.033.14q.026.119.055.24.018.075.038.149a2.894,2.894,0,0,1,1.539-.844A5.949,5.949,0,0,0,6.954,7.64a.192.192,0,1,1,.259.284A6.345,6.345,0,0,1,4.855,9.139c-.647.218-1.206.406-1.379.759a.978.978,0,0,0,.027.753v0l.013.04q.109.316.233.624c.038.094.077.189.117.282l.016.038a.192.192,0,0,1-.1.253.2.2,0,0,1-.076.016A.192.192,0,0,1,3.531,11.792Z" transform="translate(0.526 1.371)" fill="url(#linear-gradient-6)"/>
    </g>
    <path id="Path_33" data-name="Path 33" d="M70.084,113.111c.684-17.417,5.089-32.026,27.19-32.026s24.564,16.329,23.88,33.746S102.538,145.52,94.535,145.52,69.4,130.528,70.084,113.111Z" transform="translate(63.93 192.529)" fill="url(#linear-gradient-7)"/>
    <path id="Path_261" data-name="Path 261" d="M70.084,113.111c.684-17.417,5.089-32.026,27.19-32.026s24.564,16.329,23.88,33.746S102.538,145.52,94.535,145.52,69.4,130.528,70.084,113.111Z" transform="translate(63.93 192.529)" fill="url(#radial-gradient-3)"/>
    <path id="Path_277" data-name="Path 277" d="M70.084,113.111c.684-17.417,5.089-32.026,27.19-32.026s24.564,16.329,23.88,33.746S102.538,145.52,94.535,145.52,69.4,130.528,70.084,113.111Z" transform="translate(63.93 192.529)" fill="url(#radial-gradient-4)"/>
    <path id="Path_262" data-name="Path 262" d="M70.084,113.111c.684-17.417,5.089-32.026,27.19-32.026s24.564,16.329,23.88,33.746S102.538,145.52,94.535,145.52,69.4,130.528,70.084,113.111Z" transform="translate(63.93 192.529)" fill="url(#radial-gradient-5)"/>
    <path id="Path_279" data-name="Path 279" d="M174.708,373.391a3.2,3.2,0,0,1-2.182-.816,3.239,3.239,0,0,1-.993-2.483.545.545,0,1,1,1.091,0,2.2,2.2,0,0,0,.639,1.672,2.114,2.114,0,0,0,1.446.528,2.424,2.424,0,0,0,1.578-.57,2.091,2.091,0,0,0,.7-1.629.545.545,0,1,1,1.091,0,3.381,3.381,0,0,1-.295,1.413,3.075,3.075,0,0,1-.782,1.047,3.343,3.343,0,0,1-1.08.629A3.583,3.583,0,0,1,174.708,373.391Z" transform="translate(-17.604 -55.928)" fill="#3d1710"/>
    <path id="Path_2477" data-name="Path 2477" d="M1.3,0a1.3,1.3,0,0,0-1.3,1.418l.851,9.409a3.9,3.9,0,0,0,3.887,3.551h8.11c1.32,0,3.417-.682,4.137-1.788l3.055-5.135C20.665,6.5,20.86,6.368,22,6.35c1.243-.02,1.524.217,2.145,1.294l2.523,4.8c.7,1.209,2.853,1.938,4.248,1.938h9.257a3.9,3.9,0,0,0,3.873-3.427L45.207,1.46a1.334,1.334,0,0,0,.01-.143V1.282A1.3,1.3,0,0,0,43.916,0Z" transform="translate(136.466 296.77) rotate(5)" fill="#110707"/>
    <path id="Path_2972" data-name="Path 2972" d="M27.286,14.7,36.175.477,37.455.5,28.566,14.725Zm-4.56-2.018-.467-.925L29.384.358,34.5.448l-8.8,14.076A4.783,4.783,0,0,1,22.726,12.684ZM.775,14.24A3.916,3.916,0,0,1,0,14.149L8.841,0,13.96.089,5.071,14.314Z" transform="matrix(0.998, 0.07, -0.07, 0.998, 140.159, 297.249)" fill="url(#linear-gradient-8)"/>
  </g>
</svg>
