<svg width="85" height="20" viewBox="0 0 85 20" fill="none" xmlns="http://www.w3.org/2000/svg">
<path d="M74.3698 20C74.2255 19.9997 74.0872 19.9422 73.9852 19.8401C73.8832 19.7379 73.8258 19.5994 73.8255 19.455V17.0737L80.0169 8.73901H74.4347C74.3633 8.73941 74.2925 8.72565 74.2264 8.69852C74.1603 8.67139 74.1003 8.63144 74.0497 8.58096C73.9991 8.53048 73.959 8.47047 73.9316 8.4044C73.9043 8.33832 73.8903 8.26748 73.8904 8.19596V6.07678C73.8907 5.93213 73.9483 5.7935 74.0505 5.69131C74.1527 5.58912 74.2912 5.53173 74.4357 5.53173H84.4558C84.6001 5.53173 84.7385 5.58915 84.8406 5.69137C84.9427 5.79359 85 5.93222 85 6.07678V8.45999L78.8086 16.7607H84.3879C84.5322 16.7607 84.6706 16.8181 84.7727 16.9204C84.8748 17.0226 84.9321 17.1612 84.9321 17.3058V19.453C84.9318 19.5974 84.8744 19.7359 84.7724 19.8381C84.6704 19.9402 84.5321 19.9977 84.3879 19.998L74.3698 20ZM32.8404 19.973C32.696 19.973 32.5575 19.9156 32.4552 19.8134C32.353 19.7112 32.2954 19.5726 32.2952 19.4279V6.04977C32.2954 5.90513 32.353 5.76649 32.4552 5.66431C32.5575 5.56212 32.696 5.50473 32.8404 5.50473H35.6975C35.769 5.50459 35.8399 5.5186 35.906 5.54593C35.9722 5.57326 36.0323 5.61339 36.0829 5.66401C36.1336 5.71464 36.1738 5.77477 36.2012 5.84096C36.2286 5.90716 36.2427 5.97811 36.2427 6.04977V8.11796C36.7133 7.32017 37.3701 6.64861 38.1568 6.16089C38.9435 5.67316 39.8366 5.38383 40.7594 5.31771C40.8348 5.31066 40.9109 5.31933 40.9828 5.34318C41.0547 5.36703 41.1209 5.40554 41.1772 5.45628C41.2334 5.50702 41.2786 5.56889 41.3099 5.63799C41.3411 5.70709 41.3577 5.78192 41.3586 5.85776V8.45399C41.3566 8.58934 41.3043 8.7191 41.212 8.818C41.1197 8.9169 40.994 8.97787 40.8593 8.98903C40.2217 8.99207 39.5916 9.12645 39.0081 9.38382C38.4246 9.64119 37.9002 10.016 37.4676 10.4851C37.0349 10.9541 36.7033 11.5072 36.4932 12.1101C36.2832 12.713 36.1993 13.3527 36.2467 13.9895V19.433C36.2469 19.5043 36.2329 19.575 36.2057 19.6409C36.1784 19.7068 36.1384 19.7666 36.0879 19.817C35.9858 19.9189 35.8476 19.9761 35.7034 19.976L32.8404 19.973ZM19.9583 19.648C18.4258 19.2172 17.0538 18.3441 16.0135 17.1375C14.9732 15.931 14.3106 14.4445 14.1082 12.8634C13.9059 11.2822 14.1728 9.6764 14.8757 8.24616C15.5787 6.81593 16.6864 5.62457 18.0609 4.82067C18.3845 4.63139 18.7204 4.46433 19.0665 4.32062C19.7757 4.10182 20.5368 4.12009 21.2347 4.37268C21.9326 4.62526 22.5295 5.09845 22.9352 5.72075L22.9402 5.72875C23.1325 6.03447 23.4308 6.25833 23.7778 6.35743C24.1248 6.45654 24.4961 6.42391 24.8206 6.26579H24.8285C25.5013 5.95141 26.2578 5.86442 26.9841 6.01792C27.7105 6.17141 28.3674 6.55709 28.8559 7.11687C29.5197 8.04994 29.9788 9.11314 30.2031 10.2366C30.4273 11.36 30.4115 12.5183 30.1569 13.6352C29.9022 14.7521 29.4144 15.8024 28.7254 16.717C28.0365 17.6316 27.1621 18.3899 26.1597 18.9419C24.2637 19.9881 22.0311 20.2398 19.9503 19.642L19.9583 19.648ZM20.9429 8.51399C20.3472 8.95938 19.8569 9.53094 19.5071 10.1879C19.1572 10.8449 18.9565 11.571 18.9191 12.3146C18.8817 13.0582 19.0086 13.8009 19.2908 14.4898C19.5729 15.1786 20.0034 15.7966 20.5515 16.2997C20.6545 16.3945 20.7782 16.464 20.9127 16.5026C21.0472 16.5411 21.1889 16.5477 21.3264 16.5217C22.0578 16.3862 22.7504 16.0911 23.3552 15.6574C23.9599 15.2236 24.4618 14.6619 24.8253 14.012C25.1889 13.3622 25.4051 12.6401 25.4586 11.8971C25.5122 11.1542 25.4017 10.4085 25.1351 9.7131C24.9831 9.31963 24.7415 8.96717 24.4294 8.6838C24.1173 8.40043 23.7435 8.194 23.3376 8.08095C23.0879 8.0094 22.8294 7.97305 22.5697 7.97294C21.9834 7.97337 21.4132 8.16467 20.9449 8.51799L20.9429 8.51399ZM60.506 17.8078C59.8221 17.088 59.288 16.2391 58.9348 15.3106C58.5816 14.382 58.4164 13.3924 58.4489 12.3993C58.3795 10.4051 59.0933 8.4631 60.4371 6.98986C61.1118 6.28724 61.9278 5.73608 62.831 5.37283C63.7343 5.00957 64.7043 4.8425 65.6768 4.88267C66.6268 4.84011 67.5745 5.00685 68.4531 5.37111C69.3317 5.73538 70.1198 6.2883 70.7618 6.99086C72.059 8.48625 72.7376 10.421 72.6591 12.4003V13.1454C72.6591 13.2171 72.645 13.288 72.6176 13.3542C72.5902 13.4204 72.55 13.4805 72.4994 13.5312C72.4487 13.5818 72.3886 13.6219 72.3225 13.6492C72.2563 13.6766 72.1854 13.6906 72.1139 13.6904H62.2396C62.3855 14.5132 62.8364 15.2505 63.5019 15.7546C64.152 16.3099 64.9833 16.6068 65.8376 16.5887C66.4127 16.6195 66.9879 16.5303 67.5269 16.3268C68.0658 16.1233 68.5566 15.81 68.9683 15.4066C69.0586 15.3109 69.1805 15.2512 69.3114 15.2385C69.4422 15.2258 69.5733 15.261 69.6803 15.3376L71.5137 16.6697C71.5733 16.713 71.6233 16.768 71.6609 16.8313C71.6984 16.8947 71.7226 16.9651 71.7319 17.0381C71.7413 17.1112 71.7356 17.1854 71.7152 17.2562C71.6949 17.327 71.6603 17.3929 71.6136 17.4498C71.0085 18.1736 70.2547 18.7582 69.4037 19.1639C68.291 19.6966 67.0708 19.9656 65.8376 19.95C64.849 19.9874 63.8635 19.8164 62.945 19.4481C62.0266 19.0798 61.1956 18.5223 60.506 17.8118V17.8078ZM63.4679 8.79902C62.8515 9.37999 62.4404 10.1459 62.2965 10.9812H68.9563C68.8081 10.1638 68.4177 9.41008 67.8358 8.81802C67.5495 8.54428 67.2112 8.33076 66.8411 8.19009C66.471 8.04941 66.0764 7.98442 65.6808 7.99895C64.8693 7.97206 64.0785 8.25849 63.4719 8.79902H63.4679ZM44.5841 17.8098C43.9008 17.0894 43.3675 16.24 43.0152 15.3111C42.6629 14.3822 42.4986 13.3924 42.532 12.3993C42.4626 10.4051 43.1764 8.4631 44.5202 6.98986C45.1953 6.28685 46.0117 5.73546 46.9155 5.3722C47.8193 5.00893 48.7899 4.84207 49.7629 4.88267C50.7117 4.84109 51.658 5.00821 52.5353 5.37226C53.4126 5.73631 54.1996 6.28846 54.8409 6.98986C56.1381 8.48524 56.8167 10.42 56.7382 12.3993V13.1444C56.7382 13.2161 56.7241 13.287 56.6967 13.3532C56.6693 13.4194 56.6291 13.4795 56.5785 13.5302C56.5278 13.5808 56.4677 13.6209 56.4016 13.6482C56.3354 13.6756 56.2646 13.6896 56.193 13.6894H46.3237C46.4696 14.5122 46.9205 15.2495 47.5859 15.7536C48.2361 16.309 49.0674 16.6058 49.9217 16.5877C50.4968 16.6185 51.0721 16.5293 51.611 16.3258C52.1499 16.1223 52.6407 15.809 53.0524 15.4056C53.1427 15.3099 53.2646 15.2502 53.3955 15.2375C53.5263 15.2248 53.6574 15.26 53.7644 15.3366L55.5978 16.6687C55.6574 16.712 55.7074 16.767 55.745 16.8303C55.7825 16.8937 55.8067 16.9641 55.816 17.0371C55.8254 17.1102 55.8197 17.1844 55.7993 17.2552C55.779 17.326 55.7444 17.3919 55.6977 17.4488C55.0916 18.1734 54.3364 18.7584 53.4838 19.1639C52.3711 19.6967 51.1509 19.9656 49.9177 19.95C48.9289 19.9876 47.9432 19.8166 47.0246 19.4483C46.1059 19.08 45.2748 18.5224 44.5851 17.8118L44.5841 17.8098ZM47.551 8.79902C46.9346 9.37999 46.5235 10.1459 46.3796 10.9812H53.0394C52.892 10.1642 52.5026 9.4105 51.9219 8.81802C51.6354 8.54415 51.297 8.33057 50.9267 8.18989C50.5564 8.04921 50.1617 7.98428 49.7659 7.99895C48.953 7.97102 48.1606 8.25752 47.553 8.79902H47.551ZM10.6023 19.9C10.5071 19.8997 10.4131 19.8786 10.3269 19.8381C10.2406 19.7977 10.1642 19.739 10.103 19.666L4.07236 11.7063V19.3649C4.07236 19.5095 4.01502 19.6481 3.91295 19.7504C3.81089 19.8526 3.67245 19.91 3.52811 19.91H0.544255C0.399807 19.9102 0.261173 19.853 0.15879 19.751C0.108067 19.7004 0.0679047 19.6402 0.0406442 19.5739C0.0133837 19.5077 -0.000429397 19.4366 1.01705e-05 19.3649V0.979328C1.01705e-05 0.834772 0.0573501 0.696137 0.159416 0.593921C0.261481 0.491704 0.399912 0.43428 0.544255 0.43428H3.52711C3.67138 0.434544 3.80965 0.492054 3.91166 0.594213C4.01367 0.696372 4.07109 0.834853 4.07136 0.979328V8.25297L9.78642 0.670301C9.84767 0.5973 9.92407 0.538545 10.0103 0.49813C10.0965 0.457714 10.1905 0.436607 10.2857 0.43628H13.7359C13.8176 0.436728 13.8974 0.460261 13.9663 0.504168C14.0352 0.548075 14.0903 0.610571 14.1252 0.684458C14.1602 0.758346 14.1736 0.840619 14.1639 0.921804C14.1542 1.00299 14.1218 1.07978 14.0705 1.14334L7.50959 10.0071L14.4799 19.1919C14.5326 19.2553 14.5661 19.3325 14.5765 19.4143C14.5869 19.4961 14.5738 19.5792 14.5386 19.6537C14.5035 19.7283 14.4478 19.7913 14.3781 19.8353C14.3085 19.8793 14.2277 19.9024 14.1454 19.902L10.6023 19.9ZM23.8549 5.06869L25.2839 0.105251C25.29 0.0837594 25.301 0.0639749 25.316 0.047442C25.3311 0.0309092 25.3497 0.0180756 25.3705 0.00994289C25.3912 0.00181021 25.4136 -0.00140132 25.4359 0.000558986C25.4581 0.00251929 25.4796 0.00959837 25.4986 0.0212436C25.9097 0.279538 26.2063 0.685749 26.3275 1.15634C26.5451 2.00067 26.4292 2.89654 26.0037 3.65737C25.5783 4.41821 24.8762 4.98536 24.0436 5.2407C24.029 5.24496 24.0139 5.24698 23.9987 5.2467C23.9765 5.24683 23.9545 5.24182 23.9345 5.23208C23.9145 5.22233 23.897 5.2081 23.8834 5.1905C23.8698 5.1729 23.8604 5.1524 23.856 5.13058C23.8516 5.10876 23.8522 5.08622 23.8579 5.06469L23.8549 5.06869Z" fill="#2B7FFF"/>
</svg>
